<?xml version="1.0" encoding="utf-8" ?><svg xmlns="http://www.w3.org/2000/svg" xmlns:xlink="http://www.w3.org/1999/xlink" width="975" height="779" viewBox="0 0 975 779"><clipPath id="cl_3"><rect x="0.00024414062" width="975" height="779"/></clipPath><g clip-path="url(#cl_3)"><path fill="#021B36" transform="matrix(0.76053 0 0 0.760742 0.000244141 0)" d="M632.978 0L682.572 0L683.304 0.218765C693.125 3.08723 709.642 4.03978 720.563 6.16184C753.707 12.6015 798.825 28.9436 826.926 47.6934C842.617 25.3668 858.287 10.3333 886.469 5.32229C909.998 1.00136 934.276 6.32085 953.84 20.0836C972.516 33.3971 985.121 53.5967 988.87 76.2197C995.339 116.765 977.101 150.056 941.652 169.663C952.918 188.425 966.96 225.113 971.36 246.65C979.658 247.153 1006.03 246.191 1005.49 260.621C1005.34 264.645 1001.64 269.196 998.671 272.005C989.381 274.505 986.454 273.252 976.813 273.14C981.372 298.172 982.202 323.199 984.01 348.629C985.443 368.783 987.75 391.649 987.625 411.53C998.467 402.47 1009.83 391.858 1020.41 382.365C1036.9 367.776 1053.24 353.028 1069.43 338.124C1066.64 324.579 1062.86 295.223 1082.24 291.957C1097.09 289.453 1104.34 309.328 1109.51 319.957C1129.98 309.222 1161.09 290.376 1184.67 297.536C1195.85 301.027 1205.17 308.861 1210.52 319.281C1227.86 352.375 1200.2 380.26 1182.28 405.796C1176.85 413.525 1170.74 421.154 1165.04 428.713L1119.99 488.498L1005.6 640.81C1012.79 646.878 1019.83 653.123 1026.71 659.539C1063.55 612.01 1084.38 563.917 1150.2 555.653C1180.66 551.737 1211.43 560.063 1235.76 578.802C1260.29 597.899 1276.16 626.015 1279.83 656.882C1282.93 681.503 1277.64 710.223 1265.5 731.942C1261.7 738.738 1253.18 749.889 1248.23 756.084C1201.53 814.465 1140.92 863.055 1078.01 903.025C1049.83 920.928 1019.76 937.276 991.091 954.259C1032.19 961.928 1055.87 980.463 1060.14 1024L245.572 1024C246.824 983.515 275.851 961.098 313.59 954.593C294.543 938.798 278.591 923.413 264.196 903.515C233.139 860.586 219.014 808.474 228.536 755.93C236.113 714.124 264.512 665.728 299.442 640.855C293.294 633.698 284.663 621.198 278.809 613.324L234.94 553.733L180.588 479.026C162.045 454.258 143.761 429.297 125.739 404.148C110.444 424.069 98.1377 451.755 73.3304 458.957C58.9425 463.191 43.4553 461.452 30.3651 454.133C7.0417 440.944 -6.93259 408.837 11.4794 385.679C13.2522 383.45 15.0167 381.051 16.7536 378.773L32.6451 357.639L89.0075 282.127L150.834 197.846C154.377 192.976 173.886 164.489 177.536 162.09C200.816 146.785 236.398 129.903 263.015 119.64C266.344 118.311 274.014 119.606 276.573 121.631C281.588 125.6 277.684 137.611 276.509 143.158C275.421 148.291 274.015 154.066 272.936 159.589L266.685 191.964C264.434 203.635 263.505 211.916 257.282 222.345C250.584 233.572 243.407 244.06 236.023 254.828L205.559 299.017C221.516 321.385 249.628 346.613 268.984 366.448C283.705 381.533 301.989 400.527 318.2 413.814C320.583 367.189 324.105 320.628 328.764 274.175C321.604 274.476 310.55 276.474 304.688 271.92C298.356 266.733 300.168 255.516 305.354 250.179C311.306 244.054 326.361 245.736 334.704 245.752C338.755 223.04 352.858 188.607 364.008 168.645C352.358 162.309 340.941 151.508 333.08 140.93C319.41 122.786 313.704 99.866 317.272 77.4326C320.952 54.9273 333.418 34.8033 351.932 21.4827C384.856 -2.44725 431.767 -0.994547 461.995 26.9257C469.119 33.5053 474.184 40.3775 479.783 48.1921C515.749 29.1402 547.235 14.4534 587.78 6.54775C594.863 5.18626 601.993 4.07946 609.156 3.22948C615.079 2.57815 627.833 1.87123 632.978 0Z"/><path fill="#E46C18" transform="matrix(0.76053 0 0 0.760742 0.000244141 0)" d="M886.229 273.087L924.48 273.005L942.649 273.222C943.013 284.351 944.634 298.572 945.572 310.042L951.074 379.854C955.796 443.414 960.117 507.003 964.035 570.618C966.994 614.636 972.782 670.781 967.676 713.268C957.768 795.712 913.424 870.973 848.428 922.114C782.403 974.239 698.257 997.78 614.759 987.486C530.791 976.868 454.392 933.59 402.127 867.036C370.226 826.969 348.881 779.546 340.043 729.104C332.318 685.034 336.298 638.935 339.322 594.575L345.871 497.709C350.816 423.782 354.195 346.149 363.022 273.023L419.423 273.098C420.114 277.035 420.824 280.929 421.685 284.793C435.557 347.049 512.387 375.936 566.467 345.782C575.914 340.514 581.983 335.619 590.062 328.754C599.531 362.815 610.343 371.994 640.107 389.423C639.915 390.286 639.704 391.146 639.474 392C628.09 434.341 591.611 453.93 549.128 442.702C532.574 438.327 516.749 426.731 509.338 411.133C506.373 404.891 504.029 398.107 500.706 392.025C494.299 380.489 480.683 373.782 477.73 392.156C475.286 405.987 482.132 418.752 489.716 429.817C494.747 437.158 501.01 443.752 507.962 449.418C525.396 463.626 544.654 468.062 566.045 471.89C571.245 494.065 582.18 542.875 606.891 546.745C637.341 551.514 696.103 558.179 718.371 532.134C727.598 521.341 735.685 485.121 739.019 471.724C768.439 469.428 795.475 456.292 813.766 432.835C823.006 420.985 834.948 395.125 821.926 381.76C820.642 380.787 818.113 380.732 816.772 381.21C802.57 386.28 801.567 401.965 794.729 413.784C768.984 458.283 696.578 455.819 672.714 410.695C668.881 403.448 667.269 397.104 665.141 389.279C667.862 387.753 670.561 386.187 673.237 384.582C698.531 369.464 707.574 356.146 714.616 328.287C718.658 331.399 722.855 334.491 726.83 337.606C765.43 367.855 823.118 363.415 858.254 329.644C875.761 312.817 880.584 295.455 886.229 273.087Z"/><path fill="#021B36" transform="matrix(0.76053 0 0 0.760742 0.000244141 0)" d="M599.251 571.671C617.101 574.806 625.705 585.554 643.119 587.706C659.251 590.015 672.78 585.879 687.016 578.862C701.358 571.791 714.597 566.012 714.099 587.889C711.852 591.68 710.332 593.202 707.18 596.188C680.825 616.437 628.678 617.586 600.815 598.852C595.87 595.528 593.374 589.784 591.454 584.423C593.885 578.375 594.951 576.552 599.251 571.671Z"/><path fill="#E46C18" transform="matrix(0.76053 0 0 0.760742 0.000244141 0)" d="M642.663 34.0845C647.357 33.5032 658.15 33.7166 662.978 33.844C704.032 35.3049 744.353 45.1458 781.463 62.7616C863.082 101.356 905.764 162.574 935.337 245.509L886.137 245.609C884.132 238.807 882.05 231.603 879.248 225.11C868.784 200.506 848.871 181.136 823.983 171.354C798.359 161.51 769.857 162.344 744.853 173.67C713.811 187.365 701.232 209.272 689.64 239.099C680.659 235.686 671.262 233.484 661.698 232.552C642.308 231.565 633.265 233.681 615.377 239.732C613.047 232.509 610.05 224.234 606.609 217.562C594.719 194.668 574.289 177.374 549.741 169.425C523.608 161.239 495.296 163.719 470.985 176.324C438.812 192.906 429.657 213.586 419.354 245.671C402.91 245.191 385.78 245.453 369.278 245.5C413.002 113.47 505.632 46.5431 642.663 34.0845Z"/><path fill="#EEEDED" transform="matrix(0.76053 0 0 0.760742 0.000244141 0)" d="M778.482 191.323C817.286 186.505 852.615 214.139 857.273 252.953C861.931 291.766 834.143 326.971 795.3 331.466C756.685 335.935 721.723 308.353 717.092 269.767C712.461 231.181 739.905 196.113 778.482 191.323Z"/><path fill="#021B36" transform="matrix(0.76053 0 0 0.760742 0.000244141 0)" d="M777.635 227.487C788.254 226.655 794.505 227.608 804.627 229.675C797.025 234.733 789.385 241.35 792.163 251.665C793.252 255.781 795.999 259.261 799.75 261.275C812.724 268.18 819.896 255.993 824.537 246.423C834.333 267.1 832.613 275.956 824.055 296.185L817.692 293.38C815.537 292.381 813.345 291.462 811.121 290.625C787.081 281.618 773.087 285.712 750.676 295.928C737.853 275.008 740.49 249.558 761.886 235.099C766.971 231.663 771.993 229.747 777.635 227.487Z"/><path fill="#EEEDED" transform="matrix(0.76053 0 0 0.760742 0.000244141 0)" d="M509.259 191.279C548.02 186.368 583.396 213.873 588.181 252.64C592.966 291.407 565.338 326.684 526.546 331.34C487.933 335.975 452.845 308.51 448.082 269.923C443.319 231.335 470.677 196.167 509.259 191.279Z"/><path fill="#021B36" transform="matrix(0.76053 0 0 0.760742 0.000244141 0)" d="M517.263 226.98C524.729 227.247 527.98 228.06 535.091 229.86C533.436 230.994 531.835 232.204 530.292 233.486C520.116 241.835 519.796 251.049 528.64 261.111C537.879 271.622 548.644 252.114 557.46 252.578C564.368 256.995 561.19 279.658 558.845 286.797C555.23 297.804 545.096 292.119 537.929 289.159C514.094 282.449 503.249 286.487 481.219 295.967C477.469 287.682 474.569 280.958 474.019 271.679C473.345 260.99 477.003 250.479 484.168 242.517C492.74 232.894 504.495 227.675 517.263 226.98Z"/><path fill="#E46C18" transform="matrix(0.76053 0 0 0.760742 0.000244141 0)" d="M213.609 363.146C221.678 368.986 240.926 387.124 248.511 394.135L315.052 456.325C310.328 467.281 278.434 544.094 273.746 547.349L272.159 546.359C259.863 533.316 248.093 514.422 237.204 499.995C213.714 468.871 191.218 435.784 167.603 404.896C183.52 391.508 198.416 377.327 213.609 363.146Z"/><path fill="#E46C18" transform="matrix(0.76053 0 0 0.760742 0.000244141 0)" d="M1090.77 363.278C1104.57 372.928 1124.1 392.947 1136.84 405.356C1124.45 424.566 1109.24 443.492 1095.56 461.899L1033.51 546.373C1032.55 547.566 1032.66 547.547 1031.2 547.978C1027.43 545.76 994.007 465.938 989.701 455.574C1004.27 443.687 1019.39 429.237 1033.21 416.425L1090.77 363.278Z"/><path fill="#E46C18" transform="matrix(0.76053 0 0 0.760742 0.000244141 0)" d="M182.395 190.392C187.112 193.85 192.285 198.12 196.923 201.779C206.263 209.445 217.517 218.712 227.755 225.157C213.408 243.279 201.067 262.149 187.177 280.04C164.013 283.124 161.379 287.399 163.656 310.608C141.962 341.209 118.409 370.981 97.2256 401.609C87.2577 394.458 76.9198 387.195 67.4389 379.442C62.585 375.92 57.2474 371.576 52.4571 367.861C67.214 346.021 82.9617 325.807 98.5738 304.618L182.395 190.392Z"/><path fill="#DA854A" transform="matrix(0.76053 0 0 0.760742 0.000244141 0)" d="M182.395 190.392C187.112 193.85 192.285 198.12 196.923 201.779C189.993 214.841 172.201 237.331 162.687 250.021C147.151 270.838 131.752 291.758 116.491 312.778C102.273 332.192 88.089 351.591 74.3183 371.326C72.4229 374.042 69.8664 377.23 67.4389 379.442C62.585 375.92 57.2474 371.576 52.4571 367.861C67.214 346.021 82.9617 325.807 98.5738 304.618L182.395 190.392Z"/><path fill="#BA5618" transform="matrix(0.76053 0 0 0.760742 0.000244141 0)" d="M971.228 822.842C979.741 823.185 988.936 823.666 997.401 823.48C1012.53 823.147 1025.82 821.435 1040.93 823.094C1036.88 845.238 1014.76 881.697 1000.37 899.381C952.862 957.724 877.926 983.118 804.848 989.955C820.124 980.594 833.293 974.598 849.155 963.867C905.366 925.841 939.526 881.505 971.228 822.842Z"/><path fill="#BA5618" transform="matrix(0.76053 0 0 0.760742 0.000244141 0)" d="M333.693 822.333C344.708 841.68 354.851 860.201 367.453 878.608C404.098 932.132 447.671 957.33 500.801 989.835C426.654 982.911 353.88 957.695 304.397 899.094C290.112 882.178 268.417 844.999 264.671 823.104C273.211 824.555 325.88 824.487 333.693 822.333Z"/><path fill="#BA5618" transform="matrix(0.76053 0 0 0.760742 0.000244141 0)" d="M1124.67 727.149C1158.01 727.732 1191.35 727.965 1224.69 727.846C1207.43 749.36 1188.92 769.849 1169.26 789.207C1164.73 793.21 1161.76 795.646 1156.84 799.214L1079.3 799.772L1079.39 776.946C1094.74 760.451 1109.04 743.407 1124.67 727.149Z"/><path fill="#E46C18" transform="matrix(0.76053 0 0 0.760742 0.000244141 0)" d="M894.565 38.933C911.161 38.0316 923.541 39.5464 936.721 50.9379C947.28 60.0773 953.795 73.0206 954.844 86.9439C955.71 101.2 950.978 115.231 941.653 126.051C937.932 130.293 928.756 138.043 923.131 138.428C920.931 137.867 920.766 137.364 919.208 135.525C896.947 105.679 883.059 91.2058 853.994 67.5671C867.398 50.4286 872.094 44.574 894.565 38.933Z"/><path fill="#E46C18" transform="matrix(0.76053 0 0 0.760742 0.000244141 0)" d="M400.002 38.4742C425.959 38.938 437.623 47.4025 450.893 69.0512C426.566 87.2748 410.454 104.775 391.529 128.15C388.314 132.301 385.833 135.826 382.901 140.145C378.783 137.737 374.847 135.03 371.124 132.048C333.101 101.146 350.131 43.3889 400.002 38.4742Z"/><path fill="#E46C18" transform="matrix(0.76053 0 0 0.760742 0.000244141 0)" d="M300.536 686.046C302.249 698.828 302.881 712.09 304.783 725.507C309.862 761.328 319.566 789.401 333.693 822.333C325.88 824.487 273.211 824.555 264.671 823.104C252.511 769.628 265.351 727.023 300.536 686.046Z"/><path fill="#E46C18" transform="matrix(0.76053 0 0 0.760742 0.000244141 0)" d="M1003.76 685.868C1034.08 720.113 1046.86 750.292 1044.15 796.95C1043.69 804.97 1042.65 815.264 1040.93 823.094C1025.82 821.435 1012.53 823.147 997.401 823.48C988.936 823.666 979.741 823.185 971.228 822.842C991.773 776.055 1002.27 737.541 1003.76 685.868Z"/><path fill="#DA854A" transform="matrix(0.76053 0 0 0.760742 0.000244141 0)" d="M1161.16 588.968C1178.06 587.189 1192.03 593.693 1206.51 601.496C1185.09 622.963 1162.85 648.564 1142.49 671.155C1137 676.991 1131.58 682.899 1126.25 688.878C1120.76 667.782 1116.1 629.666 1112.8 606.643C1130.45 594.214 1139.84 591.236 1161.16 588.968Z"/><path fill="#BA5618" transform="matrix(0.76053 0 0 0.760742 0.000244141 0)" d="M1225.18 617.262C1229.12 619.271 1232.54 623.877 1234.57 627.729C1248.81 654.827 1248 674.86 1239.96 702.891C1216.49 702.51 1193.01 702.607 1169.54 703.183L1147.17 702.976C1172.75 673.599 1199.3 646.183 1225.18 617.262Z"/><path fill="#E46C18" transform="matrix(0.76053 0 0 0.760742 0.000244141 0)" d="M646.176 259.513C662.877 257.814 673.26 260.579 687.774 268.863C691.706 290.714 692.716 293.437 702.808 313.127C686.931 308.318 677.663 306.602 661.066 306.178C643.186 304.306 620.345 308.033 603.091 312.508C611.573 296.077 615.019 286.962 617.27 268.69C626.496 263.134 635.641 260.849 646.176 259.513Z"/><path fill="#DA854A" transform="matrix(0.76053 0 0 0.760742 0.000244141 0)" d="M1089.91 632.932C1093.85 636.347 1103.53 702.63 1105.03 711.907C1094.98 722.602 1084.78 734.735 1074.96 745.82L1072.49 738.715C1067.08 718.499 1059.88 704.911 1049.39 687.086C1062.44 670.916 1077.41 649.809 1089.91 632.932Z"/><path fill="#EEEDED" transform="matrix(0.76053 0 0 0.760742 0.000244141 0)" d="M640.596 443.373C643.71 450.691 642.57 513.073 642.32 524.222C627.542 524.633 616.66 525.724 605.805 514.246C600.465 502.896 595.394 482.55 592.049 470.078C616.813 461.974 620.495 460.12 640.596 443.373Z"/><path fill="#EEEDED" transform="matrix(0.76053 0 0 0.760742 0.000244141 0)" d="M662.859 443.069C666.555 444.957 672.449 450.351 676.227 453.102C688.586 462.101 698.589 465.425 712.817 469.52C709.084 484.036 704.912 498.436 700.306 512.699C692.638 526.029 676.33 524.355 663.117 524.155C663.332 496.928 662.902 470.253 662.859 443.069Z"/><path fill="#BA5618" transform="matrix(0.76053 0 0 0.760742 0.000244141 0)" d="M38.4275 387.444C50.0514 393.715 71.9759 411.776 82.9299 420.475C78.5036 427.831 75.0471 432.411 68.1047 437.479C65.3252 438.609 62.4056 439.359 59.4252 439.707C51.1755 440.651 42.737 438.897 36.1988 433.591C30.7255 429.088 27.2624 422.598 26.5694 415.546C25.4029 403.904 31.6019 395.896 38.4275 387.444Z"/><path fill="#BA5618" transform="matrix(0.76053 0 0 0.760742 0.000244141 0)" d="M1075.92 824.299C1093.1 824.679 1110.29 824.916 1127.47 825.009C1114.7 835.503 1103.54 843.348 1090.01 852.778C1079.74 859.406 1069.91 866.832 1059.49 873.161C1067.75 855.505 1071.2 842.934 1075.92 824.299Z"/><path fill="#EEEDED" transform="matrix(0.76053 0 0 0.760742 0.000244141 0)" d="M230.671 158.364C235.377 159.127 241.347 163.181 244.846 166.324C242.306 179.195 240.758 191.063 239.15 204.02L224.607 193.015L199.543 174.152C209.706 168.46 220.232 163.563 230.671 158.364Z"/><path fill="#E46C18" transform="matrix(0.76053 0 0 0.760742 0.000244141 0)" d="M1088.57 176.728C1088.52 161.375 1083.49 125.858 1105.43 125.413C1109.72 125.305 1113.87 126.925 1116.96 129.909C1124.22 137.029 1122.74 153.305 1122.64 163.137C1122.66 166.867 1122.89 173.336 1122.63 176.843C1132.87 176.528 1165.3 174.286 1170.1 181.356C1195.41 218.578 1135.33 211.42 1122.5 211.09C1122.6 219.989 1123.49 247.071 1121.62 254.582C1120.94 257.236 1119.59 259.673 1117.71 261.664C1111.87 267.863 1099.2 268.784 1093.48 261.74C1085.25 251.587 1088.99 234.861 1088.25 222.709C1088.04 219.26 1088.4 214.432 1088.68 211.07C1078.6 211.239 1047.23 214.311 1042.63 205.947C1022.49 169.287 1074.9 176.567 1088.57 176.728Z"/><path fill="#BA5618" transform="matrix(0.76053 0 0 0.760742 0.000244141 0)" d="M1122.63 176.843C1121.11 176.47 1121.61 176.597 1120.24 175.61C1117.49 170.965 1117.75 165.982 1122.64 163.137C1122.66 166.867 1122.89 173.336 1122.63 176.843Z"/></g></svg>